# xmcd
#
# Track frame offsets:
#	150
#	15662
#	40108
#	51192
#	62848
#	75003
#	100202
#	111868
#	126357
#	139436
#	152122
#	163352
#	209459
#	220043
#	230444
#	245933
#	259129
#	271579
#	282170
#	294689
#
# Disc length: 4101 seconds
#
# Revision: 0
# Processed by: cddbd v1.5.2PL0 Copyright (c) Steve Scherf et al.
# Submitted via: EasyCDDAExtractor 2011.3.0.0
#
DISCID=2c100314
DTITLE=B.B. King - Greatest  Hits Vol 1
DYEAR=2014
DGENRE=Blues
TTITLE0=I Need You Baby
TTITLE1=The thrill is gone
TTITLE2=Raining In My Heart
TTITLE3=Easy Listening Blues aka Easy Listening
TTITLE4=Shoutin' The Blues
TTITLE5=So excited
TTITLE6=Chains Of Love
TTITLE7=Drifting Blues
TTITLE8=Rainin' All The Time
TTITLE9=A Mother's Love
TTITLE10=Heartbreaker
TTITLE11=Lucille
TTITLE12=I Need Your Love
TTITLE13=That's Wrong Little Mama
TTITLE14=Strange Things
TTITLE15=Sunny Road
TTITLE16=Walking'
TTITLE17=Tomorrow Night
TTITLE18=You're Gonna Miss Me
TTITLE19=Worried Dream
EXTD=
EXTT0=
EXTT1=
EXTT2=
EXTT3=
EXTT4=
EXTT5=
EXTT6=
EXTT7=
EXTT8=
EXTT9=
EXTT10=
EXTT11=
EXTT12=
EXTT13=
EXTT14=
EXTT15=
EXTT16=
EXTT17=
EXTT18=
EXTT19=
PLAYORDER=
